<svg width="53" height="25" viewBox="0 0 53 25" fill="none" xmlns="http://www.w3.org/2000/svg">
<path d="M10.924 7.65813C11.4339 7.4884 11.9779 7.39788 12.5422 7.39788C15.0126 7.39788 17.0751 9.14949 17.5465 11.4782L21.0481 10.7653C20.2458 6.80948 16.7419 3.8313 12.5422 3.8313C11.579 3.8313 10.6565 3.98745 9.79077 4.27712L10.924 7.65813Z" fill="white"/>
<path d="M6.79224 18.9871L9.16065 16.3144C8.1045 15.3798 7.43817 14.0151 7.43817 12.4944C7.43817 10.9758 8.1045 9.61122 9.16065 8.67884L6.79224 6.00391C4.99723 7.59257 3.86401 9.91221 3.86401 12.4944C3.86401 15.0788 4.99723 17.3984 6.79224 18.9871" fill="#6A6464"/>
<path d="M17.5465 13.5172C17.0728 15.8436 15.0126 17.593 12.5445 17.593C11.9779 17.593 11.4317 17.5025 10.924 17.3305L9.79077 20.716C10.6565 21.0034 11.5812 21.1596 12.5445 21.1596C16.7396 21.1596 20.2413 18.1859 21.0481 14.2346L17.5465 13.5172Z" fill="#9E9E9E"/>
<path d="M24.1101 16.4253C23.9945 16.2398 23.8404 15.9433 23.7452 15.7238C23.1899 14.4384 23.165 13.1077 23.6319 11.8313C24.1463 10.4305 25.13 9.36006 26.4014 8.8124C27.9993 8.12669 29.7648 8.26021 31.2969 9.1677C32.2692 9.72441 32.9582 10.5844 33.4818 11.8019C33.5475 11.958 33.6064 12.1232 33.6653 12.2658L24.1101 16.4253ZM27.3012 10.8786C26.1657 11.3651 25.581 12.4288 25.7034 13.6734L30.5082 11.6073C29.681 10.6387 28.6067 10.3173 27.3012 10.8786V10.8786ZM31.1065 15.373C31.1043 15.373 31.1043 15.3753 31.1043 15.3753L31.0045 15.3074C30.7167 15.7713 30.2702 16.1492 29.7059 16.3936C28.6316 16.8598 27.6366 16.7399 26.9205 16.113L26.8547 16.2126C26.8547 16.2126 26.8547 16.2103 26.8525 16.2103L25.6331 18.0321C25.9368 18.2426 26.2609 18.4191 26.6009 18.5616C27.9471 19.1206 29.3251 19.0935 30.6827 18.5051C31.6641 18.0796 32.4347 17.4324 32.9605 16.6109L31.1065 15.373ZM37.0038 6.13293V16.2579L38.5812 16.896L37.686 18.9826L35.9454 18.2584C35.5555 18.0887 35.2881 17.8307 35.0886 17.5387C34.896 17.2423 34.7532 16.8327 34.7532 16.285V6.13293H37.0038ZM41.0879 13.6802C41.0879 12.818 41.4709 12.044 42.0738 11.519L40.4555 9.71762C39.3586 10.6862 38.6673 12.1006 38.6673 13.6757C38.6651 15.2531 39.3563 16.6697 40.451 17.6383L42.067 15.8369C41.4664 15.3096 41.0879 14.5402 41.0879 13.6802V13.6802ZM43.9617 16.5521C43.6444 16.5521 43.3362 16.4977 43.0506 16.4027L42.2777 18.6952C42.8058 18.8717 43.3702 18.969 43.9594 18.969C46.5205 18.9713 48.6577 17.1563 49.1541 14.7461L46.7789 14.2618C46.5092 15.5721 45.351 16.5543 43.9617 16.5521V16.5521ZM43.9685 8.39147C43.3815 8.39147 42.8172 8.48652 42.2891 8.66077L43.0551 10.9555C43.343 10.8605 43.6489 10.8084 43.9662 10.8084C45.3578 10.8107 46.5182 11.7974 46.7811 13.1099L49.1564 12.6302C48.6691 10.2155 46.5318 8.39373 43.9685 8.39147V8.39147Z" fill="white"/>
</svg>
